<svg xmlns="http://www.w3.org/2000/svg" xmlns:xlink="http://www.w3.org/1999/xlink" viewBox="0 0 141.71 46.1"><defs><style>.cls-1{fill:url(#linear-gradient);}.cls-2{fill:url(#linear-gradient-2);}.cls-3{fill:url(#linear-gradient-3);}.cls-4{fill:url(#Turquoise);}.cls-5{fill:url(#Turquoise-2);}.cls-6{fill:url(#Turquoise-3);}.cls-7{fill:#f1f2f2;}</style><linearGradient id="linear-gradient" x1="3.5" y1="3.35" x2="30.38" y2="3.35" gradientUnits="userSpaceOnUse"><stop offset="0" stop-color="#20a595"/><stop offset="0.51" stop-color="#00a9a0"/><stop offset="0.65" stop-color="#009c99"/><stop offset="1" stop-color="#008089"/></linearGradient><linearGradient id="linear-gradient-2" x1="7.97" y1="8.66" x2="25.91" y2="8.66" xlink:href="#linear-gradient"/><linearGradient id="linear-gradient-3" x1="12.63" y1="14.05" x2="21.27" y2="14.05" xlink:href="#linear-gradient"/><linearGradient id="Turquoise" y1="22.7" x2="21.51" y2="22.7" gradientUnits="userSpaceOnUse"><stop offset="0.01" stop-color="#3eb0ca"/><stop offset="0.5" stop-color="#0099b9"/><stop offset="0.99" stop-color="#007c84"/></linearGradient><linearGradient id="Turquoise-2" x1="3.12" y1="27.99" x2="27.66" y2="27.99" xlink:href="#Turquoise"/><linearGradient id="Turquoise-3" x1="9.24" y1="28.88" x2="33.8" y2="28.88" xlink:href="#Turquoise"/></defs><title>Asset 1</title><g id="Layer_2"><g id="Layer_1-2"><path class="cls-1" d="M13.83,3.31a19.47,19.47,0,0,1,3.07-.24A20,20,0,0,1,28,6.44a1.53,1.53,0,0,0,1.94-.19h0a1.54,1.54,0,0,0-.24-2.37A23,23,0,0,0,16.9,0a23.87,23.87,0,0,0-3.07.2A22.87,22.87,0,0,0,4.18,3.84,1.53,1.53,0,0,0,4,6.2H4a1.52,1.52,0,0,0,1.93.19A19.87,19.87,0,0,1,13.83,3.31Z"/><path class="cls-2" d="M16.9,6.15a16.38,16.38,0,0,0-3.07.28A16.58,16.58,0,0,0,8.76,8.24a1.53,1.53,0,0,0-.34,2.43h0a1.53,1.53,0,0,0,1.83.26,13.82,13.82,0,0,1,3.58-1.37,14.16,14.16,0,0,1,3.07-.34A13.67,13.67,0,0,1,23.63,11a1.53,1.53,0,0,0,1.83-.26h0a1.54,1.54,0,0,0-.34-2.43,18.36,18.36,0,0,0-2.1-1A16.81,16.81,0,0,0,16.9,6.15Z"/><path class="cls-3" d="M16.9,12.29a10.7,10.7,0,0,0-3.07.45l-.12,0a1.53,1.53,0,0,0-.63,2.55h0a1.53,1.53,0,0,0,1.55.38,7.22,7.22,0,0,1,2.27-.34,7.43,7.43,0,0,1,2.36.37,1.55,1.55,0,0,0,1.56-.38h0a1.54,1.54,0,0,0-.61-2.55L20,12.73A11,11,0,0,0,16.9,12.29Z"/><path class="cls-4" d="M6.15,23.1a4.59,4.59,0,0,0,4.61,4.56h0a4.63,4.63,0,0,0,4.61-4.6,1.54,1.54,0,1,1,3.07,0,7.63,7.63,0,0,1-1.54,4.61,7.79,7.79,0,0,1-3.07,2.43A7.68,7.68,0,0,1,3.07,23.15v-.21a13.81,13.81,0,0,1,3.28-8.82A1.53,1.53,0,0,0,6.26,12h0a1.54,1.54,0,0,0-2.26.1A16.81,16.81,0,0,0,0,22.91v.28A10.78,10.78,0,0,0,7.7,33.36a10.63,10.63,0,0,0,3.06.44,10.75,10.75,0,0,0,3.07-.44,10.86,10.86,0,0,0,4.6-2.78A10.72,10.72,0,0,0,21.51,23a4.6,4.6,0,0,0-4.61-4.6h0a4.53,4.53,0,0,0-3.07,1.18A4.61,4.61,0,0,0,12.29,23a1.54,1.54,0,1,1-3.07,0,7.61,7.61,0,0,1,1.54-4.61h0a1.54,1.54,0,0,0-.13-2l0,0a1.53,1.53,0,0,0-2.3.16A10.75,10.75,0,0,0,6.15,23.1Z"/><path class="cls-5" d="M24.58,22.94v.21A13.84,13.84,0,0,1,13.83,36.53a13.69,13.69,0,0,1-7.66-.44,8.83,8.83,0,0,1-.9-.35,1.53,1.53,0,0,0-1.7.32h0a1.54,1.54,0,0,0,.48,2.5l.59.24A16.81,16.81,0,0,0,10.76,40a17.35,17.35,0,0,0,3.07-.28A17,17,0,0,0,27.66,23.19v-.28a10.65,10.65,0,0,0-2.12-6.26,1.54,1.54,0,0,0-2.32-.17h0a1.55,1.55,0,0,0-.14,2A7.59,7.59,0,0,1,24.58,22.94Z"/><path class="cls-6" d="M30.73,22.87v.36a20,20,0,0,1-16.9,19.56,20.73,20.73,0,0,1-3.07.23h0a1.5,1.5,0,0,0-1.5,1.5v.09a1.5,1.5,0,0,0,1.48,1.49h0a22.3,22.3,0,0,0,3.07-.21,23.07,23.07,0,0,0,20-22.84,16.84,16.84,0,0,0-3.94-10.84,1.53,1.53,0,0,0-2.26-.1h0a1.53,1.53,0,0,0-.1,2.07A13.73,13.73,0,0,1,30.73,22.87Z"/><path class="cls-7" d="M48.62,22.66c0,1.93,1,2.93,3,2.93s3.13-1,3.13-2.93V12.37h2.44V22.59c0,3.49-1.79,5.1-5.57,5.1s-5.54-1.63-5.54-5.1V12.37h2.51Z"/><path class="cls-7" d="M62.12,17.07a29.08,29.08,0,0,1,5.42-.85c2.93,0,3.81,1.63,3.81,5.31v6H69V21.6c0-2.39-.37-3.23-2-3.23a17.05,17.05,0,0,0-2.52.45v8.7H62.12Z"/><rect class="cls-7" x="76.15" y="12.33" width="2.45" height="2.31"/><rect class="cls-7" x="76.15" y="16.44" width="2.45" height="11.08"/><path class="cls-7" d="M88.84,16.22c-4.25,0-5.62,1.5-5.62,5.72,0,4.38,1.39,5.75,4.36,5.75A6,6,0,0,0,90.22,27v3.29h2.37V16.59A34.65,34.65,0,0,0,88.84,16.22Zm1.38,8.89a7.9,7.9,0,0,1-2.4.48c-1.58,0-2.15-1.17-2.15-3.6,0-2.6.57-3.66,2.91-3.66a13.3,13.3,0,0,1,1.64.1Z"/><path class="cls-7" d="M119.05,24.85v-5c0-2.68-1.32-3.62-4.25-3.62a8.32,8.32,0,0,0-3.9,1l.41,1.62a10.31,10.31,0,0,1,3.36-.58c1.13,0,2,.15,2,1.6v.8l-2.84.26c-2.32.09-3.62,1.09-3.62,3.28,0,2.38,1.12,3.51,3.29,3.51a7.8,7.8,0,0,0,3.51-.8,4.15,4.15,0,0,0,2.78.8l.26-1.78C119.29,25.69,119.05,25.48,119.05,24.85Zm-2.4.39-.37.11a7.2,7.2,0,0,1-2.32.43c-1,0-1.41-.54-1.41-1.52a1.48,1.48,0,0,1,1.52-1.67l2.58-.26Z"/><path class="cls-7" d="M131.29,18.69a12.39,12.39,0,0,0-2.86-.32c-1.54,0-2.45.15-2.45,1.13,0,.75.21.93,2.86,1.4,2.32.42,3.36.94,3.36,3.41s-1.54,3.38-4.31,3.38a25.88,25.88,0,0,1-3.43-.33l-.63-.13.33-2c1.77.19,2.75.35,3.57.35,1.56,0,2.08-.39,2.08-1.28s-.13-1-2.68-1.43-3.49-1-3.49-3.25c0-2.54,2-3.36,4.63-3.36a12,12,0,0,1,3.34.45Z"/><path class="cls-7" d="M136.17,13.28h2.38v3.16h3l-.26,2.08h-2.75v4.81c0,1.93.17,2.26,1.26,2.26l1.75-.09.15,1.95a15.15,15.15,0,0,1-2.25.24c-2.38,0-3.29-.74-3.29-4.1Z"/><path class="cls-7" d="M48,37.45a1,1,0,0,0,.55-.13A1,1,0,0,0,48.9,37a1.41,1.41,0,0,0,.19-.47,2.6,2.6,0,0,0,.06-.56V33.83h.66V36a3.12,3.12,0,0,1-.1.82,1.84,1.84,0,0,1-.32.66,1.47,1.47,0,0,1-.56.45,1.92,1.92,0,0,1-.83.17,1.8,1.8,0,0,1-.84-.18,1.49,1.49,0,0,1-.56-.46,2,2,0,0,1-.31-.67A3.35,3.35,0,0,1,46.2,36V33.83h.66V36a3.33,3.33,0,0,0,0,.56,1.46,1.46,0,0,0,.19.48,1.07,1.07,0,0,0,.36.34A1.11,1.11,0,0,0,48,37.45Z"/><path class="cls-7" d="M52.78,35.07v3h-.66V33.83h.52l2.4,3v-3h.66V38h-.54Z"/><path class="cls-7" d="M58.08,38V33.83h.66V38Z"/><path class="cls-7" d="M64,37.71a2,2,0,0,1-.51.25,1.94,1.94,0,0,1-1.4-.09,2.19,2.19,0,0,1-.63-.48,2,2,0,0,1-.41-.68,2.16,2.16,0,0,1-.15-.78,2.05,2.05,0,0,1,.16-.81,2.27,2.27,0,0,1,.42-.68,2,2,0,0,1,.63-.46,1.85,1.85,0,0,1,.81-.18,1.74,1.74,0,0,1,.82.19,2.11,2.11,0,0,1,.63.48,2.15,2.15,0,0,1,.4.69,2.07,2.07,0,0,1,.15.77,2.21,2.21,0,0,1-.56,1.46l.55.63h-.64Zm-1.09-.26a1.5,1.5,0,0,0,.37-.05,1.11,1.11,0,0,0,.31-.15L63,36.56h.63l.3.35a1.33,1.33,0,0,0,.23-.46,1.88,1.88,0,0,0,.08-.52,1.81,1.81,0,0,0-.09-.58,2.12,2.12,0,0,0-.27-.49,1.53,1.53,0,0,0-.42-.34,1.23,1.23,0,0,0-.55-.12,1.13,1.13,0,0,0-.56.13,1.19,1.19,0,0,0-.42.35,1.36,1.36,0,0,0-.26.49,1.78,1.78,0,0,0-.1.56,1.9,1.9,0,0,0,.1.57,1.47,1.47,0,0,0,.27.49,1.28,1.28,0,0,0,.42.34A1.23,1.23,0,0,0,62.86,37.45Z"/><path class="cls-7" d="M68.72,37.45a1,1,0,0,0,.9-.47,1.41,1.41,0,0,0,.19-.47,2.59,2.59,0,0,0,0-.56V33.83h.67V36a3.12,3.12,0,0,1-.1.82,1.84,1.84,0,0,1-.32.66,1.47,1.47,0,0,1-.56.45,1.92,1.92,0,0,1-.83.17,1.84,1.84,0,0,1-.85-.18,1.46,1.46,0,0,1-.55-.46,1.79,1.79,0,0,1-.31-.67,3.35,3.35,0,0,1-.09-.79V33.83h.66V36a2.54,2.54,0,0,0,0,.56,1.46,1.46,0,0,0,.19.48,1,1,0,0,0,.9.46Z"/><path class="cls-7" d="M75.71,37.43V38H72.84V33.83h2.82v.59H73.5v1.19h1.87v.55H73.5v1.27Z"/><path class="cls-7" d="M83.63,34.42H82.24V38h-.67v-3.6h-1.4v-.59h3.46Z"/><path class="cls-7" d="M85.89,33.83l1.26,3.36,1.26-3.36h.7L87.43,38h-.56l-1.68-4.19Z"/><path class="cls-7" d="M96.62,37.43V38H93.74V33.83h2.82v.59H94.4v1.19h1.87v.55H94.4v1.27Z"/><path class="cls-7" d="M99,33.83l1.16,1.65,1.17-1.65H102L100.51,36,102,38h-.72l-1.12-1.59L99,38h-.73L99.8,36l-1.54-2.12Z"/><path class="cls-7" d="M104,38V33.83h1.75a1.11,1.11,0,0,1,.52.12,1.27,1.27,0,0,1,.41.31,1.25,1.25,0,0,1,.27.44,1.19,1.19,0,0,1,.1.49,1.44,1.44,0,0,1-.09.51,1.39,1.39,0,0,1-.26.44,1.23,1.23,0,0,1-.4.31,1.19,1.19,0,0,1-.51.11h-1.13V38Zm.66-2h1.09a.51.51,0,0,0,.25-.06.55.55,0,0,0,.2-.17.7.7,0,0,0,.13-.24,1.07,1.07,0,0,0,0-.32,1,1,0,0,0,0-.31.87.87,0,0,0-.15-.25.82.82,0,0,0-.22-.16.53.53,0,0,0-.25,0h-1Z"/><path class="cls-7" d="M111.93,37.43V38h-2.88V33.83h2.82v.59h-2.16v1.19h1.87v.55h-1.87v1.27Z"/><path class="cls-7" d="M114,38V33.83h1.82a1.18,1.18,0,0,1,.53.12,1.32,1.32,0,0,1,.67.75,1.19,1.19,0,0,1,.1.49,1.35,1.35,0,0,1-.06.41,1.46,1.46,0,0,1-.16.36,1.2,1.2,0,0,1-.26.29,1.11,1.11,0,0,1-.34.18l1,1.59h-.75l-.91-1.46h-1V38Zm.66-2h1.16a.58.58,0,0,0,.26-.06.61.61,0,0,0,.19-.17.79.79,0,0,0,.13-.26.94.94,0,0,0,0-.3.8.8,0,0,0-.06-.3.72.72,0,0,0-.14-.24.6.6,0,0,0-.22-.17.54.54,0,0,0-.25-.06H114.7Z"/><path class="cls-7" d="M119.37,38V33.83H120V38Z"/><path class="cls-7" d="M125.28,37.43V38h-2.87V33.83h2.82v.59h-2.16v1.19h1.87v.55h-1.87v1.27Z"/><path class="cls-7" d="M128.06,35.07v3h-.66V33.83h.52l2.39,3v-3H131V38h-.55Z"/><path class="cls-7" d="M133.09,35.9a2.22,2.22,0,0,1,.14-.76,2,2,0,0,1,.4-.67,1.89,1.89,0,0,1,.63-.48,2,2,0,0,1,.86-.18,1.81,1.81,0,0,1,1,.25,1.68,1.68,0,0,1,.61.66l-.52.35a1.27,1.27,0,0,0-.21-.32,1.05,1.05,0,0,0-.27-.2.89.89,0,0,0-.31-.11,1.08,1.08,0,0,0-.3,0,1.18,1.18,0,0,0-.58.14,1.1,1.1,0,0,0-.42.35,1.62,1.62,0,0,0-.25.49,1.7,1.7,0,0,0-.09.54,1.86,1.86,0,0,0,.1.58,1.57,1.57,0,0,0,.28.49,1.41,1.41,0,0,0,.43.34,1.13,1.13,0,0,0,.54.13,1.17,1.17,0,0,0,.32,0,1.66,1.66,0,0,0,.31-.12,1.42,1.42,0,0,0,.28-.22,1.41,1.41,0,0,0,.21-.31l.55.31a1.22,1.22,0,0,1-.29.42,1.73,1.73,0,0,1-.41.3,1.92,1.92,0,0,1-.49.19,2.14,2.14,0,0,1-.5.06,1.85,1.85,0,0,1-.81-.18,2.22,2.22,0,0,1-1-1.19A2.12,2.12,0,0,1,133.09,35.9Z"/><path class="cls-7" d="M141.7,37.43V38h-2.88V33.83h2.82v.59h-2.16v1.19h1.87v.55h-1.87v1.27Z"/><path class="cls-7" d="M103.58,27.69c-4.48,0-6.65-1.63-6.65-7.88,0-5,1-7.77,6.65-7.77a15.49,15.49,0,0,1,3.86.56l-.65,2a14.69,14.69,0,0,0-3.21-.36c-2.71,0-4.1.72-4.1,5.64s1.85,5.63,4.1,5.63a17.3,17.3,0,0,0,3.32-.33l.49,2A16.12,16.12,0,0,1,103.58,27.69Z"/></g></g></svg>
